<?xml version="1.0" encoding="utf-8"?>
<svg xmlns="http://www.w3.org/2000/svg" viewBox="83.37 75.933 22 34" width="22px" height="34px" xmlns:bx="https://boxy-svg.com"><defs/><path d="M 102.77 83.09 C 102.07 83.09 100.55 83.17 99.43 83.17 C 98.4 83.17 96.97 83.09 96.1 83.09 L 96.13 84.26 C 97.53 84.54 98.09 84.77 98.09 85.38 C 98.09 86 97.31 87.01 95.23 90.26 C 93.47 87.32 92.29 85.75 92.29 85.08 C 92.29 84.57 92.69 84.4 93.86 84.18 L 93.89 83.09 C 92.91 83.09 90.98 83.17 89.13 83.17 C 87.53 83.17 85.85 83.09 84.9 83.09 L 84.9 84.1 C 87 84.68 87.14 85.22 92.38 93.22 C 87.39 100.17 87.23 100.42 84.9 101.06 L 84.93 102.02 C 85.6 102.02 87.14 101.93 88.09 101.93 C 89.3 101.93 90.95 102.02 91.85 102.02 L 91.85 100.98 C 90.39 100.59 89.77 100.45 89.77 99.83 C 89.77 99.24 90.53 98.29 93.22 94.26 C 96.13 98.8 96.61 99.5 96.61 100.03 C 96.61 100.62 96.05 100.78 94.79 101.04 L 94.79 102.02 C 95.79 102.02 97.67 101.93 99.38 101.93 C 100.86 101.93 102.68 102.02 103.66 102.02 L 103.69 101.09 C 101.73 100.48 101.2 99.5 96.05 91.35 C 100.61 85.05 100.83 84.68 102.77 84.15 Z" style="fill: #000000; text-wrap-mode: nowrap;"/></svg>